<svg xmlns="http://www.w3.org/2000/svg" width="512" height="512" viewBox="0 0 512 512">
  <!-- Background -->
  <rect width="512" height="512" rx="85" fill="#2563eb"/>
  
  <!-- Car silhouette -->
  <g fill="white">
    <!-- Car body -->
    <path d="M100 270 L130 180 Q145 150 185 150 L327 150 Q367 150 382 180 L412 270 Q425 285 425 315 L425 360 Q425 375 410 375 L102 375 Q87 375 87 360 L87 315 Q87 285 100 270 Z"/>
    
    <!-- Windows -->
    <path d="M145 195 L165 165 Q175 155 195 155 L317 155 Q337 155 347 165 L367 195 Q380 210 365 220 L147 220 Q132 210 145 195 Z" fill="#2563eb"/>
    
    <!-- Wheels -->
    <circle cx="170" cy="365" r="50" fill="#1e40af"/>
    <circle cx="170" cy="365" r="28" fill="white"/>
    <circle cx="342" cy="365" r="50" fill="#1e40af"/>
    <circle cx="342" cy="365" r="28" fill="white"/>
    
    <!-- Wrench icon -->
    <g transform="translate(200, 250) scale(1.3)">
      <path d="M20 8 L8 20 L12 24 L24 12 L28 16 L44 0 L48 4 L32 20 L36 24 L24 36 L20 32 L4 48 L0 44 L16 28 L12 24 L0 36 L-4 32 L8 20 Z" fill="#fbbf24"/>
    </g>
  </g>
  
  <!-- Text -->
  <text x="256" y="465" text-anchor="middle" fill="white" font-family="Arial, sans-serif" font-size="58" font-weight="bold">WERKSTATT</text>
</svg>
