<svg xmlns="http://www.w3.org/2000/svg" width="512" height="512" viewBox="0 0 512 512">
  <rect width="512" height="512" rx="64" fill="#2563eb"/>
  <g fill="white">
    <!-- Wrench icon -->
    <path d="M256 106.7c-82.4 0-149.3 66.9-149.3 149.3S173.6 405.3 256 405.3 405.3 338.4 405.3 256 338.4 106.7 256 106.7zm0 266.6c-64.7 0-117.3-52.6-117.3-117.3S191.3 138.7 256 138.7 373.3 191.3 373.3 256 320.7 373.3 256 373.3z"/>
    <path d="M320 213.3l-32 32-21.3-21.3 32-32c-14.1-8.5-30.4-13.3-48-13.3-51.5 0-93.3 41.8-93.3 93.3 0 17.6 4.8 33.9 13.3 48l-32 32 21.3 21.3 32-32c14.1 8.5 30.4 13.3 48 13.3 51.5 0 93.3-41.8 93.3-93.3 0-17.6-4.8-33.9-13.3-48z"/>
    <circle cx="256" cy="256" r="32"/>
  </g>
  <text x="256" y="426" text-anchor="middle" fill="white" font-family="Arial, sans-serif" font-size="53" font-weight="bold">KFZ</text>
</svg>
